<mxfile host="app.diagrams.net" modified="2024-05-09T11:48:34.141Z" agent="Mozilla/5.0 (Windows NT 10.0; Win64; x64) AppleWebKit/537.36 (KHTML, like Gecko) Chrome/124.0.0.0 Safari/537.36" etag="t5csC6jXaQgAZVDN7mVI" version="24.3.1" type="device">
  <diagram name="Página-1" id="a-leNGqjc1Im72wGdUnp">
    <mxGraphModel dx="3703" dy="1114" grid="1" gridSize="10" guides="1" tooltips="1" connect="1" arrows="1" fold="1" page="1" pageScale="1" pageWidth="827" pageHeight="1169" math="0" shadow="0">
      <root>
        <mxCell id="0" />
        <mxCell id="1" parent="0" />
        <mxCell id="WU4pW3NTZvIjnJe63hyD-38" value="" style="swimlane;startSize=0;" vertex="1" parent="1">
          <mxGeometry x="-940" y="50" width="930" height="1060" as="geometry" />
        </mxCell>
        <mxCell id="WU4pW3NTZvIjnJe63hyD-1" value="Cliente" style="shape=umlActor;verticalLabelPosition=bottom;verticalAlign=top;html=1;outlineConnect=0;" vertex="1" parent="WU4pW3NTZvIjnJe63hyD-38">
          <mxGeometry x="113" y="430" width="30" height="60" as="geometry" />
        </mxCell>
        <mxCell id="WU4pW3NTZvIjnJe63hyD-2" value="Iniciar Conversa" style="strokeWidth=2;html=1;shape=mxgraph.flowchart.start_1;whiteSpace=wrap;" vertex="1" parent="WU4pW3NTZvIjnJe63hyD-38">
          <mxGeometry x="283" y="100" width="240" height="60" as="geometry" />
        </mxCell>
        <mxCell id="WU4pW3NTZvIjnJe63hyD-3" value="Cadastrar Cliente" style="strokeWidth=2;html=1;shape=mxgraph.flowchart.start_1;whiteSpace=wrap;" vertex="1" parent="WU4pW3NTZvIjnJe63hyD-38">
          <mxGeometry x="283" y="180" width="240" height="60" as="geometry" />
        </mxCell>
        <mxCell id="WU4pW3NTZvIjnJe63hyD-4" value="Realizar Login" style="strokeWidth=2;html=1;shape=mxgraph.flowchart.start_1;whiteSpace=wrap;" vertex="1" parent="WU4pW3NTZvIjnJe63hyD-38">
          <mxGeometry x="283" y="260" width="240" height="60" as="geometry" />
        </mxCell>
        <mxCell id="WU4pW3NTZvIjnJe63hyD-6" value="Cadastrar Entrega" style="strokeWidth=2;html=1;shape=mxgraph.flowchart.start_1;whiteSpace=wrap;" vertex="1" parent="WU4pW3NTZvIjnJe63hyD-38">
          <mxGeometry x="283" y="370" width="240" height="60" as="geometry" />
        </mxCell>
        <mxCell id="WU4pW3NTZvIjnJe63hyD-7" value="Gerar Fatura" style="strokeWidth=2;html=1;shape=mxgraph.flowchart.start_1;whiteSpace=wrap;" vertex="1" parent="WU4pW3NTZvIjnJe63hyD-38">
          <mxGeometry x="283" y="480" width="240" height="60" as="geometry" />
        </mxCell>
        <mxCell id="WU4pW3NTZvIjnJe63hyD-8" value="Efetuar Pagamento" style="strokeWidth=2;html=1;shape=mxgraph.flowchart.start_1;whiteSpace=wrap;" vertex="1" parent="WU4pW3NTZvIjnJe63hyD-38">
          <mxGeometry x="283" y="580" width="240" height="60" as="geometry" />
        </mxCell>
        <mxCell id="WU4pW3NTZvIjnJe63hyD-9" value="Visualizar Pedido" style="strokeWidth=2;html=1;shape=mxgraph.flowchart.start_1;whiteSpace=wrap;" vertex="1" parent="WU4pW3NTZvIjnJe63hyD-38">
          <mxGeometry x="283" y="680" width="240" height="60" as="geometry" />
        </mxCell>
        <mxCell id="WU4pW3NTZvIjnJe63hyD-10" value="Rastrear Entrega" style="strokeWidth=2;html=1;shape=mxgraph.flowchart.start_1;whiteSpace=wrap;" vertex="1" parent="WU4pW3NTZvIjnJe63hyD-38">
          <mxGeometry x="283" y="770" width="240" height="60" as="geometry" />
        </mxCell>
        <mxCell id="WU4pW3NTZvIjnJe63hyD-11" value="Registrar Entrega" style="strokeWidth=2;html=1;shape=mxgraph.flowchart.start_1;whiteSpace=wrap;" vertex="1" parent="WU4pW3NTZvIjnJe63hyD-38">
          <mxGeometry x="553" y="860" width="240" height="60" as="geometry" />
        </mxCell>
        <mxCell id="WU4pW3NTZvIjnJe63hyD-12" value="Funcionário" style="shape=umlActor;verticalLabelPosition=bottom;verticalAlign=top;html=1;outlineConnect=0;" vertex="1" parent="WU4pW3NTZvIjnJe63hyD-38">
          <mxGeometry x="713" y="390" width="30" height="60" as="geometry" />
        </mxCell>
        <mxCell id="WU4pW3NTZvIjnJe63hyD-16" value="" style="endArrow=open;endFill=1;endSize=12;html=1;rounded=0;exitX=1;exitY=0.3333333333333333;exitDx=0;exitDy=0;exitPerimeter=0;entryX=0;entryY=0.5;entryDx=0;entryDy=0;entryPerimeter=0;" edge="1" parent="WU4pW3NTZvIjnJe63hyD-38" source="WU4pW3NTZvIjnJe63hyD-1" target="WU4pW3NTZvIjnJe63hyD-2">
          <mxGeometry width="160" relative="1" as="geometry">
            <mxPoint x="293" y="470" as="sourcePoint" />
            <mxPoint x="453" y="470" as="targetPoint" />
          </mxGeometry>
        </mxCell>
        <mxCell id="WU4pW3NTZvIjnJe63hyD-17" value="" style="endArrow=open;endFill=1;endSize=12;html=1;rounded=0;entryX=1;entryY=0.5;entryDx=0;entryDy=0;entryPerimeter=0;exitX=0;exitY=0.3333333333333333;exitDx=0;exitDy=0;exitPerimeter=0;" edge="1" parent="WU4pW3NTZvIjnJe63hyD-38" source="WU4pW3NTZvIjnJe63hyD-12" target="WU4pW3NTZvIjnJe63hyD-3">
          <mxGeometry width="160" relative="1" as="geometry">
            <mxPoint x="203" y="500" as="sourcePoint" />
            <mxPoint x="293" y="140" as="targetPoint" />
          </mxGeometry>
        </mxCell>
        <mxCell id="WU4pW3NTZvIjnJe63hyD-18" value="" style="endArrow=open;endFill=1;endSize=12;html=1;rounded=0;exitX=1;exitY=0.3333333333333333;exitDx=0;exitDy=0;exitPerimeter=0;entryX=0;entryY=0.5;entryDx=0;entryDy=0;entryPerimeter=0;" edge="1" parent="WU4pW3NTZvIjnJe63hyD-38" source="WU4pW3NTZvIjnJe63hyD-1" target="WU4pW3NTZvIjnJe63hyD-4">
          <mxGeometry width="160" relative="1" as="geometry">
            <mxPoint x="163" y="470" as="sourcePoint" />
            <mxPoint x="303" y="150" as="targetPoint" />
          </mxGeometry>
        </mxCell>
        <mxCell id="WU4pW3NTZvIjnJe63hyD-20" value="" style="endArrow=open;endFill=1;endSize=12;html=1;rounded=0;entryX=1;entryY=0.5;entryDx=0;entryDy=0;entryPerimeter=0;exitX=0;exitY=0.3333333333333333;exitDx=0;exitDy=0;exitPerimeter=0;" edge="1" parent="WU4pW3NTZvIjnJe63hyD-38" source="WU4pW3NTZvIjnJe63hyD-12" target="WU4pW3NTZvIjnJe63hyD-6">
          <mxGeometry width="160" relative="1" as="geometry">
            <mxPoint x="183" y="490" as="sourcePoint" />
            <mxPoint x="323" y="170" as="targetPoint" />
          </mxGeometry>
        </mxCell>
        <mxCell id="WU4pW3NTZvIjnJe63hyD-23" value="" style="endArrow=open;endFill=1;endSize=12;html=1;rounded=0;exitX=1;exitY=0.3333333333333333;exitDx=0;exitDy=0;exitPerimeter=0;entryX=0;entryY=0.5;entryDx=0;entryDy=0;entryPerimeter=0;" edge="1" parent="WU4pW3NTZvIjnJe63hyD-38" source="WU4pW3NTZvIjnJe63hyD-1" target="WU4pW3NTZvIjnJe63hyD-9">
          <mxGeometry width="160" relative="1" as="geometry">
            <mxPoint x="213" y="520" as="sourcePoint" />
            <mxPoint x="353" y="200" as="targetPoint" />
          </mxGeometry>
        </mxCell>
        <mxCell id="WU4pW3NTZvIjnJe63hyD-24" value="" style="endArrow=open;endFill=1;endSize=12;html=1;rounded=0;exitX=1;exitY=0.3333333333333333;exitDx=0;exitDy=0;exitPerimeter=0;entryX=0;entryY=0.5;entryDx=0;entryDy=0;entryPerimeter=0;" edge="1" parent="WU4pW3NTZvIjnJe63hyD-38" source="WU4pW3NTZvIjnJe63hyD-1" target="WU4pW3NTZvIjnJe63hyD-10">
          <mxGeometry width="160" relative="1" as="geometry">
            <mxPoint x="223" y="530" as="sourcePoint" />
            <mxPoint x="363" y="210" as="targetPoint" />
          </mxGeometry>
        </mxCell>
        <mxCell id="WU4pW3NTZvIjnJe63hyD-25" value="" style="endArrow=open;endFill=1;endSize=12;html=1;rounded=0;exitX=0;exitY=0.3333333333333333;exitDx=0;exitDy=0;exitPerimeter=0;entryX=1;entryY=0.5;entryDx=0;entryDy=0;entryPerimeter=0;" edge="1" parent="WU4pW3NTZvIjnJe63hyD-38" source="WU4pW3NTZvIjnJe63hyD-12" target="WU4pW3NTZvIjnJe63hyD-2">
          <mxGeometry width="160" relative="1" as="geometry">
            <mxPoint x="233" y="540" as="sourcePoint" />
            <mxPoint x="373" y="220" as="targetPoint" />
          </mxGeometry>
        </mxCell>
        <mxCell id="WU4pW3NTZvIjnJe63hyD-26" value="" style="endArrow=open;endFill=1;endSize=12;html=1;rounded=0;exitX=0;exitY=0.3333333333333333;exitDx=0;exitDy=0;exitPerimeter=0;entryX=1;entryY=0.5;entryDx=0;entryDy=0;entryPerimeter=0;" edge="1" parent="WU4pW3NTZvIjnJe63hyD-38" source="WU4pW3NTZvIjnJe63hyD-12" target="WU4pW3NTZvIjnJe63hyD-4">
          <mxGeometry width="160" relative="1" as="geometry">
            <mxPoint x="243" y="550" as="sourcePoint" />
            <mxPoint x="383" y="230" as="targetPoint" />
          </mxGeometry>
        </mxCell>
        <mxCell id="WU4pW3NTZvIjnJe63hyD-27" value="" style="endArrow=open;endFill=1;endSize=12;html=1;rounded=0;exitX=0;exitY=0.3333333333333333;exitDx=0;exitDy=0;exitPerimeter=0;entryX=1.005;entryY=0.376;entryDx=0;entryDy=0;entryPerimeter=0;" edge="1" parent="WU4pW3NTZvIjnJe63hyD-38" source="WU4pW3NTZvIjnJe63hyD-12" target="WU4pW3NTZvIjnJe63hyD-10">
          <mxGeometry width="160" relative="1" as="geometry">
            <mxPoint x="253" y="560" as="sourcePoint" />
            <mxPoint x="393" y="240" as="targetPoint" />
          </mxGeometry>
        </mxCell>
        <mxCell id="WU4pW3NTZvIjnJe63hyD-28" value="" style="endArrow=open;endFill=1;endSize=12;html=1;rounded=0;exitX=0;exitY=0.3333333333333333;exitDx=0;exitDy=0;exitPerimeter=0;entryX=0.5;entryY=0;entryDx=0;entryDy=0;entryPerimeter=0;" edge="1" parent="WU4pW3NTZvIjnJe63hyD-38" source="WU4pW3NTZvIjnJe63hyD-12" target="WU4pW3NTZvIjnJe63hyD-11">
          <mxGeometry width="160" relative="1" as="geometry">
            <mxPoint x="263" y="570" as="sourcePoint" />
            <mxPoint x="403" y="250" as="targetPoint" />
          </mxGeometry>
        </mxCell>
        <mxCell id="WU4pW3NTZvIjnJe63hyD-29" value="Use" style="endArrow=open;endSize=12;dashed=1;html=1;rounded=0;exitX=0.5;exitY=1;exitDx=0;exitDy=0;exitPerimeter=0;entryX=0.5;entryY=0;entryDx=0;entryDy=0;entryPerimeter=0;" edge="1" parent="WU4pW3NTZvIjnJe63hyD-38" source="WU4pW3NTZvIjnJe63hyD-6" target="WU4pW3NTZvIjnJe63hyD-7">
          <mxGeometry width="160" relative="1" as="geometry">
            <mxPoint x="293" y="470" as="sourcePoint" />
            <mxPoint x="453" y="470" as="targetPoint" />
          </mxGeometry>
        </mxCell>
        <mxCell id="WU4pW3NTZvIjnJe63hyD-30" value="Extends" style="endArrow=block;endSize=16;endFill=0;html=1;rounded=0;exitX=0.5;exitY=1;exitDx=0;exitDy=0;exitPerimeter=0;entryX=0.5;entryY=0;entryDx=0;entryDy=0;entryPerimeter=0;" edge="1" parent="WU4pW3NTZvIjnJe63hyD-38" source="WU4pW3NTZvIjnJe63hyD-7" target="WU4pW3NTZvIjnJe63hyD-8">
          <mxGeometry width="160" relative="1" as="geometry">
            <mxPoint x="293" y="470" as="sourcePoint" />
            <mxPoint x="453" y="470" as="targetPoint" />
          </mxGeometry>
        </mxCell>
        <mxCell id="WU4pW3NTZvIjnJe63hyD-31" value="Extends" style="endArrow=block;endSize=16;endFill=0;html=1;rounded=0;exitX=0.5;exitY=0;exitDx=0;exitDy=0;exitPerimeter=0;entryX=0.5;entryY=1;entryDx=0;entryDy=0;entryPerimeter=0;" edge="1" parent="WU4pW3NTZvIjnJe63hyD-38" source="WU4pW3NTZvIjnJe63hyD-9" target="WU4pW3NTZvIjnJe63hyD-8">
          <mxGeometry width="160" relative="1" as="geometry">
            <mxPoint x="293" y="470" as="sourcePoint" />
            <mxPoint x="453" y="470" as="targetPoint" />
          </mxGeometry>
        </mxCell>
        <mxCell id="WU4pW3NTZvIjnJe63hyD-32" value="Gerente" style="shape=umlActor;verticalLabelPosition=bottom;verticalAlign=top;html=1;" vertex="1" parent="WU4pW3NTZvIjnJe63hyD-38">
          <mxGeometry x="713" y="110" width="30" height="60" as="geometry" />
        </mxCell>
        <mxCell id="WU4pW3NTZvIjnJe63hyD-34" style="edgeStyle=orthogonalEdgeStyle;rounded=0;orthogonalLoop=1;jettySize=auto;html=1;exitX=0.5;exitY=0.5;exitDx=0;exitDy=0;exitPerimeter=0;entryX=0.5;entryY=0;entryDx=0;entryDy=0;entryPerimeter=0;" edge="1" parent="WU4pW3NTZvIjnJe63hyD-38" source="WU4pW3NTZvIjnJe63hyD-32" target="WU4pW3NTZvIjnJe63hyD-12">
          <mxGeometry relative="1" as="geometry" />
        </mxCell>
        <mxCell id="WU4pW3NTZvIjnJe63hyD-39" value="&lt;font style=&quot;font-size: 24px;&quot;&gt;Innova Express&lt;/font&gt;" style="text;html=1;align=center;verticalAlign=middle;resizable=0;points=[];autosize=1;strokeColor=none;fillColor=none;" vertex="1" parent="WU4pW3NTZvIjnJe63hyD-38">
          <mxGeometry x="308" y="15" width="190" height="40" as="geometry" />
        </mxCell>
      </root>
    </mxGraphModel>
  </diagram>
</mxfile>
